# xmcd
#
# Track frame offsets: 
#        150
#        17708
#        37348
#        55343
#        76970
#        99938
#
# Disc length: 1628 seconds
#
# Revision: 0
# Processed by: cddbd v1.5.2PL0 Copyright (c) Steve Scherf et al.
# Submitted via: ExactAudioCopyFreeDBPlugin 1.0
#
DISCID=44065a06
DTITLE=Bobby Ross Avila - All That I Do [CDM Promo)
DYEAR=1993
DGENRE=R&B
TTITLE0=All That I Do (Album Edit)
TTITLE1=All That I Do (Eye Remix Edit)
TTITLE2=All That I Do (Funk 4 The People Edit)
TTITLE3=All That I Do (Album Version)
TTITLE4=All That I Do (Eye Remix)
TTITLE5=All That I Do (Funk 4 The People Remix)
EXTD=
EXTT0=
EXTT1=
EXTT2=
EXTT3=
EXTT4=
EXTT5=
PLAYORDER=
